<svg width="48" height="48" viewBox="0 0 48 48" fill="none" xmlns="http://www.w3.org/2000/svg">
<path fill-rule="evenodd" clip-rule="evenodd" d="M24 44C35.046 44 44 35.046 44 24C44 12.954 35.046 4 24 4C12.954 4 4 12.954 4 24C4 35.046 12.954 44 24 44ZM31.87 11.184C32.1459 11.2964 32.3821 11.4885 32.5485 11.7357C32.7148 11.9829 32.8038 12.274 32.804 12.572V18.002C32.804 18.3998 32.646 18.7814 32.3647 19.0627C32.0834 19.344 31.7018 19.502 31.304 19.502H26C25.7048 19.5022 25.4161 19.4152 25.17 19.252C24.924 19.0888 24.7316 18.8567 24.6169 18.5846C24.5023 18.3126 24.4704 18.0127 24.5254 17.7227C24.5804 17.4326 24.7197 17.1652 24.926 16.954L26.45 15.394C24.978 14.9417 23.4096 14.9058 21.9185 15.2903C20.4274 15.6747 19.0718 16.4644 18.002 17.572C14.666 20.986 14.666 26.538 18.002 29.952C18.7798 30.7571 19.7117 31.3973 20.7422 31.8346C21.7726 32.2719 22.8806 32.4972 24 32.4972C25.1194 32.4972 26.2274 32.2719 27.2578 31.8346C28.2883 31.3973 29.2202 30.7571 29.998 29.952C31.3111 28.6046 32.1579 26.8719 32.414 25.008C32.53 24.172 33.194 23.468 34.038 23.468C34.85 23.468 35.522 24.118 35.444 24.926C35.1894 27.6077 34.0249 30.1216 32.144 32.05C31.0868 33.1411 29.8211 34.0086 28.4221 34.6011C27.0231 35.1935 25.5193 35.4988 24 35.4988C22.4807 35.4988 20.9769 35.1935 19.5779 34.6011C18.1789 34.0086 16.9132 33.1411 15.856 32.05C11.382 27.47 11.382 20.056 15.856 15.476C17.4884 13.7911 19.6032 12.6539 21.9089 12.2212C24.2146 11.7885 26.5978 12.0816 28.73 13.06L30.23 11.524C30.4386 11.3107 30.706 11.1644 30.9981 11.1038C31.2903 11.0432 31.5938 11.0712 31.87 11.184Z" fill="#F5EFD5"/>
</svg>
