<svg width="48" height="48" viewBox="0 0 48 48" fill="none" xmlns="http://www.w3.org/2000/svg">
<path d="M21.65 44C20.75 44 19.9753 43.7 19.326 43.1C18.6766 42.5 18.2846 41.7667 18.15 40.9L17.7 37.6C17.2666 37.4333 16.8586 37.2333 16.476 37C16.0933 36.7667 15.718 36.5167 15.35 36.25L12.25 37.55C11.4166 37.9167 10.5833 37.95 9.74996 37.65C8.91663 37.35 8.26663 36.8167 7.79996 36.05L5.44996 31.95C4.98329 31.1833 4.84996 30.3667 5.04996 29.5C5.24996 28.6333 5.69996 27.9167 6.39996 27.35L9.04996 25.35C9.01663 25.1167 8.99996 24.8913 8.99996 24.674V23.324C8.99996 23.108 9.01663 22.8833 9.04996 22.65L6.39996 20.65C5.69996 20.0833 5.24996 19.3667 5.04996 18.5C4.84996 17.6333 4.98329 16.8167 5.44996 16.05L7.79996 11.95C8.26663 11.1833 8.91663 10.65 9.74996 10.35C10.5833 10.05 11.4166 10.0833 12.25 10.45L15.35 11.75C15.7166 11.4833 16.1 11.2333 16.5 11C16.9 10.7667 17.3 10.5667 17.7 10.4L18.15 7.1C18.2833 6.23333 18.6753 5.5 19.326 4.9C19.9766 4.3 20.7513 4 21.65 4H26.35C27.25 4 28.0253 4.3 28.676 4.9C29.3266 5.5 29.718 6.23333 29.85 7.1L30.3 10.4C30.7333 10.5667 31.142 10.7667 31.526 11C31.91 11.2333 32.2846 11.4833 32.65 11.75L35.75 10.45C36.5833 10.0833 37.4166 10.05 38.25 10.35C39.0833 10.65 39.7333 11.1833 40.2 11.95L42.55 16.05C43.0166 16.8167 43.15 17.6333 42.95 18.5C42.75 19.3667 42.3 20.0833 41.6 20.65L38.95 22.65C38.9833 22.8833 39 23.1087 39 23.326V24.674C39 24.8913 38.9666 25.1167 38.9 25.35L41.55 27.35C42.25 27.9167 42.7 28.6333 42.9 29.5C43.1 30.3667 42.9666 31.1833 42.5 31.95L40.1 36.05C39.6333 36.8167 38.9833 37.35 38.15 37.65C37.3166 37.95 36.4833 37.9167 35.65 37.55L32.65 36.25C32.2833 36.5167 31.9 36.7667 31.5 37C31.1 37.2333 30.7 37.4333 30.3 37.6L29.85 40.9C29.7166 41.7667 29.3253 42.5 28.676 43.1C28.0266 43.7 27.2513 44 26.35 44H21.65ZM24.1 31C26.0333 31 27.6833 30.3167 29.05 28.95C30.4166 27.5833 31.1 25.9333 31.1 24C31.1 22.0667 30.4166 20.4167 29.05 19.05C27.6833 17.6833 26.0333 17 24.1 17C22.1333 17 20.4746 17.6833 19.124 19.05C17.7733 20.4167 17.0986 22.0667 17.1 24C17.1013 25.9333 17.7766 27.5833 19.126 28.95C20.4753 30.3167 22.1333 31 24.1 31Z" fill="#F5EFD5"/>
</svg>
